<svg width="25" height="25" viewBox="0 0 25 25" fill="none" xmlns="http://www.w3.org/2000/svg">
<path d="M4.77231 19.6115C4.01713 18.8642 3.39878 17.9903 2.94531 17.0295L0.829313 19.1405C-0.0186868 19.9905 0.293313 21.5345 1.57231 22.8125C2.04135 23.2965 2.61502 23.6666 3.24931 23.8945C3.50291 23.9806 3.76851 24.0262 4.03631 24.0295C4.48651 24.0414 4.92232 23.8704 5.24431 23.5555L7.35531 21.4395C6.3927 20.9882 5.51807 20.3692 4.77231 19.6115Z" fill="#334155"/>
<path d="M10.3883 13.9965C9.27397 12.9045 8.40443 11.5881 7.83732 10.1345L4.94932 13.0205C4.31882 13.7521 4.16333 14.7802 4.54932 15.6655C4.89567 16.6238 5.45704 17.49 6.19032 18.1975C7.12772 19.2472 8.43033 19.8995 9.83232 20.0215C10.4021 20.0422 10.9559 19.8303 11.3663 19.4345L14.2493 16.5525C12.7977 15.9799 11.4824 15.1092 10.3883 13.9965Z" fill="#475569"/>
<path fill-rule="evenodd" clip-rule="evenodd" d="M18.5213 0.276506C19.8031 0.742387 20.9616 1.49485 21.9083 2.47651C24.3063 4.87451 25.0553 7.74751 23.6403 9.15651L18.4843 14.3125C17.9845 14.7959 17.3093 15.0548 16.6143 15.0295C16.1292 15.0233 15.6482 14.9399 15.1893 14.7825C13.9076 14.3166 12.7491 13.5642 11.8023 12.5825C9.40434 10.1845 8.65934 7.31151 10.0693 5.90051L15.2263 0.744506C16.1407 -0.0378144 17.4253 -0.220261 18.5213 0.276506ZM20.9703 7.72651C21.6323 7.94451 22.0783 7.89151 22.2263 7.74451C22.6003 7.36951 22.2263 5.62351 20.4963 3.89051C19.768 3.13264 18.8797 2.54676 17.8963 2.17551C17.6418 2.08641 17.375 2.03717 17.1053 2.02951C16.94 2.01351 16.7747 2.05948 16.6413 2.15851C16.2663 2.52951 16.6403 4.27951 18.3703 6.01151C19.098 6.77023 19.9864 7.35625 20.9703 7.72651Z" fill="#94A3B8"/>
</svg>
